<svg aria-hidden="true" style="position: absolute; width: 0; height: 0; overflow: hidden;" version="1.1"
    xmlns="http://www.w3.org/2000/svg" xmlns:xlink="http://www.w3.org/1999/xlink">
    <defs>
        <symbol id="pdf" viewBox="0 0 32 32">
            <path
                d="M21 26v2.003c0 1.107-0.894 1.997-1.997 1.997h-15.005c-1.107 0-1.997-0.899-1.997-2.007v-22.985c0-1.109 0.899-2.007 2.009-2.007h9.991v6.002c0 1.111 0.898 1.998 2.006 1.998h4.994v2h-8.993c-1.661 0-3.007 1.342-3.007 2.999v7.002c0 1.656 1.336 2.999 3.007 2.999h8.993zM15 3v5.997c0 0.554 0.451 1.003 0.991 1.003h5.009l-6-7zM11.995 14h17.011c1.092 0 1.995 0.892 1.995 1.992v7.016c0 1.092-0.893 1.992-1.995 1.992h-17.011c-1.092 0-1.995-0.892-1.995-1.992v-7.016c0-1.092 0.893-1.992 1.995-1.992zM25 19v-2h4v-1h-5v7h1v-3h3v-1h-3zM12 18v5h1v-3h1.995c1.107 0 2.005-0.888 2.005-2 0-1.105-0.894-2-2.005-2h-2.995v2zM13 17v2h2.001c0.552 0 0.999-0.444 0.999-1 0-0.552-0.443-1-0.999-1h-2.001zM18 16v7h2.995c1.107 0 2.005-0.887 2.005-2.006v-2.988c0-1.108-0.894-2.006-2.005-2.006h-2.995zM19 17v5h2.001c0.552 0 0.999-0.444 0.999-1v-3c0-0.552-0.443-1-0.999-1h-2.001z">
            </path>
        </symbol>
        <symbol id="home" viewBox="0 0 32 32">
            <path d="M32 19l-6-6v-9h-4v5l-6-6-16 16v1h4v10h10v-6h4v6h10v-10h4z"></path>
        </symbol>
        <symbol id="phone" viewBox="0 0 32 32">
            <path
                d="M22 20c-2 2-2 4-4 4s-4-2-6-4-4-4-4-6 2-2 4-4-4-8-6-8-6 6-6 6c0 4 4.109 12.109 8 16s12 8 16 8c0 0 6-4 6-6s-6-8-8-6z">
            </path>
        </symbol>
        <symbol id="envelop" viewBox="0 0 32 32">
            <path
                d="M29 4h-26c-1.65 0-3 1.35-3 3v20c0 1.65 1.35 3 3 3h26c1.65 0 3-1.35 3-3v-20c0-1.65-1.35-3-3-3zM12.461 17.199l-8.461 6.59v-15.676l8.461 9.086zM5.512 8h20.976l-10.488 7.875-10.488-7.875zM12.79 17.553l3.21 3.447 3.21-3.447 6.58 8.447h-19.579l6.58-8.447zM19.539 17.199l8.461-9.086v15.676l-8.461-6.59z">
            </path>
        </symbol>
        <symbol id="github" viewBox="0 0 32 32">
            <path
                d="M16 0.395c-8.836 0-16 7.163-16 16 0 7.069 4.585 13.067 10.942 15.182 0.8 0.148 1.094-0.347 1.094-0.77 0-0.381-0.015-1.642-0.022-2.979-4.452 0.968-5.391-1.888-5.391-1.888-0.728-1.849-1.776-2.341-1.776-2.341-1.452-0.993 0.11-0.973 0.11-0.973 1.606 0.113 2.452 1.649 2.452 1.649 1.427 2.446 3.743 1.739 4.656 1.33 0.143-1.034 0.558-1.74 1.016-2.14-3.554-0.404-7.29-1.777-7.29-7.907 0-1.747 0.625-3.174 1.649-4.295-0.166-0.403-0.714-2.030 0.155-4.234 0 0 1.344-0.43 4.401 1.64 1.276-0.355 2.645-0.532 4.005-0.539 1.359 0.006 2.729 0.184 4.008 0.539 3.054-2.070 4.395-1.64 4.395-1.64 0.871 2.204 0.323 3.831 0.157 4.234 1.026 1.12 1.647 2.548 1.647 4.295 0 6.145-3.743 7.498-7.306 7.895 0.574 0.497 1.085 1.47 1.085 2.963 0 2.141-0.019 3.864-0.019 4.391 0 0.426 0.288 0.925 1.099 0.768 6.354-2.118 10.933-8.113 10.933-15.18 0-8.837-7.164-16-16-16z">
            </path>
        </symbol>
        <symbol id="linkedin" viewBox="0 0 32 32">
            <path
                d="M29 0h-26c-1.65 0-3 1.35-3 3v26c0 1.65 1.35 3 3 3h26c1.65 0 3-1.35 3-3v-26c0-1.65-1.35-3-3-3zM12 26h-4v-14h4v14zM10 10c-1.106 0-2-0.894-2-2s0.894-2 2-2c1.106 0 2 0.894 2 2s-0.894 2-2 2zM26 26h-4v-8c0-1.106-0.894-2-2-2s-2 0.894-2 2v8h-4v-14h4v2.481c0.825-1.131 2.087-2.481 3.5-2.481 2.488 0 4.5 2.238 4.5 5v9z">
            </path>
        </symbol>
        <symbol id="icon-pdf" viewBox="0 0 32 32">
            <path fill="#e2e5e7" style="fill: var(--color1, #e2e5e7)"
                d="M8 0c-1.1 0-2 0.9-2 2v28c0 1.1 0.9 2 2 2h20c1.1 0 2-0.9 2-2v-22l-8-8h-14z"></path>
            <path fill="#b0b7bd" style="fill: var(--color2, #b0b7bd)" d="M24 8h6l-8-8v6c0 1.1 0.9 2 2 2z"></path>
            <path fill="#cad1d8" style="fill: var(--color3, #cad1d8)" d="M30 14l-6-6h6z"></path>
            <path fill="#f15642" style="fill: var(--color4, #f15642)"
                d="M26 26c0 0.55-0.45 1-1 1h-22c-0.55 0-1-0.45-1-1v-10c0-0.55 0.45-1 1-1h22c0.55 0 1 0.45 1 1v10z">
            </path>
            <path fill="#fff" style="fill: var(--color5, #fff)"
                d="M6.359 18.947c0-0.264 0.208-0.552 0.543-0.552h1.847c1.040 0 1.976 0.696 1.976 2.030 0 1.264-0.936 1.968-1.976 1.968h-1.335v1.056c0 0.352-0.224 0.551-0.512 0.551-0.264 0-0.543-0.199-0.543-0.551v-4.502zM7.414 19.402v1.992h1.335c0.536 0 0.96-0.473 0.96-0.969 0-0.559-0.424-1.023-0.96-1.023h-1.335zM12.291 24c-0.264 0-0.552-0.144-0.552-0.495v-4.542c0-0.287 0.288-0.496 0.552-0.496h1.831c3.654 0 3.574 5.533 0.072 5.533h-1.903zM12.795 19.443v3.582h1.327c2.159 0 2.255-3.582 0-3.582h-1.327zM18.992 19.507v1.271h2.039c0.288 0 0.576 0.288 0.576 0.567 0 0.264-0.288 0.48-0.576 0.48h-2.039v1.679c0 0.28-0.199 0.495-0.479 0.495-0.352 0-0.567-0.215-0.567-0.495v-4.542c0-0.287 0.216-0.496 0.567-0.496h2.807c0.352 0 0.56 0.209 0.56 0.496 0 0.256-0.208 0.544-0.56 0.544l-2.328 0.001z">
            </path>
            <path fill="#cad1d8" style="fill: var(--color3, #cad1d8)"
                d="M25 27h-19v1h19c0.55 0 1-0.45 1-1v-1c0 0.55-0.45 1-1 1z"></path>
        </symbol>
        <symbol id="flag-cz" viewBox="0 0 640 480">
            <path fill="#fff" d="M0 0h640v240H0z" />
            <path fill="#d7141a" d="M0 240h640v240H0z" />
            <path fill="#11457e" d="M360 240 0 0v480z" />
        </symbol>
        <symbol id="flag-ru" viewBox="0 0 640 480">
            <path fill="#fff" d="M0 0h640v160H0z" />
            <path fill="#0039a6" d="M0 160h640v160H0z" />
            <path fill="#d52b1e" d="M0 320h640v160H0z" />
        </symbol>
        <symbol id="flag-ua" viewBox="0 0 640 480">
            <path fill="gold" d="M0 0h640v480H0z" />
            <path fill="#0057b8" d="M0 0h640v240H0z" />
        </symbol>
        <symbol id="flag-gb" viewBox="0 0 640 480">
            <path fill="#012169" d="M0 0h640v480H0z" />
            <path fill="#FFF"
                d="m75 0 244 181L562 0h78v62L400 241l240 178v61h-80L320 301 81 480H0v-60l239-178L0 64V0z" />
            <path fill="#C8102E"
                d="m424 281 216 159v40L369 281zm-184 20 6 35L54 480H0zM640 0v3L391 191l2-44L590 0zM0 0l239 176h-60L0 42z" />
            <path fill="#FFF" d="M241 0v480h160V0zM0 160v160h640V160z" />
            <path fill="#C8102E" d="M0 193v96h640v-96zM273 0v480h96V0z" />
        </symbol>
    </defs>
</svg>